<svg width="300" height="300" viewBox="0 0 300 300" fill="none" xmlns="http://www.w3.org/2000/svg">
<g id="Logo sm -1x1">
<g id="sm-container">
<g id="sm-bg">
<rect id="bg3" x="18.4736" y="9.59998" width="274.326" height="274.326" rx="6" fill="#010101"/>
<rect id="bg2" x="13.4631" y="13.3579" width="274.326" height="274.326" rx="6" fill="#0C0B0B"/>
<rect id="bg1" x="7.19995" y="15.8631" width="274.326" height="274.326" rx="6" fill="#121212" fill-opacity="0.96"/>
</g>
<g id="sm-simbols">
<path id="M" d="M218.905 105.582C218.905 161.103 218.905 216.31 218.905 271.466C211.802 273.396 202.207 269.13 197.458 262.088C194.682 257.971 193.528 253.442 193.532 248.484C193.572 204.227 193.555 159.97 193.555 115.713C193.555 114.499 193.555 113.285 193.555 111.212C192.549 112.44 192.027 112.977 191.617 113.59C179.015 132.398 166.445 151.228 153.793 170.003C152.644 171.707 152.526 172.784 153.791 174.603C166.421 192.749 170.889 212.47 161.776 233.198C151.768 255.962 133.803 269.203 108.769 271.571C81.5957 274.14 60.4966 263.07 44.6415 241.375C40.6614 235.929 37.1752 230.122 33.5052 224.546C42.5656 216.559 55.1134 218.15 62.6275 227.368C66.6868 232.347 71.0505 237.292 76.0757 241.235C99.0185 259.233 134.226 247.284 140.759 219.538C142.732 211.16 141.629 203.15 137.795 195.514C132.796 185.558 115.601 167.336 105.445 161.235C105.377 162.359 105.267 163.334 105.265 164.309C105.252 173.911 105.28 183.514 105.252 193.117C105.213 206.479 93.6006 216.231 79.9266 214.038C79.9266 212.882 79.9266 211.661 79.9266 210.44C79.9266 188.416 79.8834 166.392 79.9849 144.368C79.9966 141.813 79.3222 140.082 77.2335 138.59C74.9701 136.972 72.9635 134.996 70.852 133.182C78.4096 124.189 93.6689 122.583 103.866 130.02C113.974 137.392 123.68 145.313 133.559 152.998C134.359 153.621 135.131 154.28 136.164 155.125C140.508 148.772 144.743 142.604 148.951 136.418C164.618 113.385 180.42 90.4417 195.863 67.2593C201.492 58.8089 209.081 56.4723 218.905 57.7685C218.905 73.6171 218.905 89.4427 218.905 105.582Z" fill="#FCFCFC"/>
<path id="S" d="M90.7737 35.1853C114.538 30.9459 133.975 38.4532 149.875 55.8051C154.289 60.6221 158.346 65.767 162.536 70.7252C153.682 79.4592 140.678 79.501 132.069 71.2436C129.89 69.1529 127.717 67.0251 125.336 65.1792C112.92 55.5542 94.6477 54.8398 82.9575 63.5336C75.6515 68.9669 71.6644 76.2504 71.5629 85.4396C71.4766 93.2507 68.8603 99.8665 63.0672 105.238C60.3211 107.784 57.8406 110.616 54.7753 113.802C47.5085 100.08 45.8525 86.2039 50.0357 72.0033C56.0066 51.7337 70.2276 40.0223 90.7737 35.1853Z" fill="#FBFBFB"/>
<path id="DOT" d="M249.993 243.426C255.214 248.653 256.729 254.671 254.274 261.364C251.894 267.853 246.895 271.45 240.06 271.919C233.498 272.369 228.299 269.59 224.847 263.902C220.848 257.311 222.255 248.531 228.055 243.352C234.189 237.875 242.645 237.847 249.993 243.426Z" fill="#FBFBFB"/>
</g>
</g>
</g>
</svg>
