<svg width="200" height="47" viewBox="0 0 200 47" fill="none" xmlns="http://www.w3.org/2000/svg">
<g id="Logo sm - 2x1">
<g id="sm-container">
<g id="sm-simbols">
<path id="SM" d="M35.3953 22.962C35.3953 30.3856 35.3953 37.7481 35.3953 45.1052C33.2747 45.5885 31.0685 43.9403 30.7623 41.8231C30.6766 41.2306 30.6392 40.6261 30.6386 40.027C30.6307 32.2349 30.6334 24.4429 30.6334 16.6508C30.6334 16.4557 30.6334 16.2605 30.6334 15.9641C28.8466 18.6224 27.1172 21.1924 25.3913 23.7647C24.756 24.7114 24.1487 25.6777 23.4862 26.6048C23.2884 26.8816 23.3166 27.0073 23.5002 27.2684C24.631 28.8761 25.4947 30.6408 25.7064 32.5916C25.9062 34.4328 25.8073 36.2879 25.0329 38.058C23.8183 40.834 21.8371 42.8431 19.137 44.1506C17.6987 44.847 16.1608 45.1425 14.553 45.1995C12.3625 45.2772 10.283 44.8984 8.32789 43.9224C6.30899 42.9147 4.70507 41.4082 3.41407 39.5763C2.75851 38.646 2.19684 37.65 1.56592 36.7016C1.39468 36.4442 1.44738 36.3791 1.68166 36.2086C3.23655 35.0767 5.63924 35.2846 6.95372 37.108C8.06035 38.6432 9.40406 39.9251 11.224 40.6109C13.1688 41.3438 15.0808 41.1616 16.9488 40.3633C19.107 39.441 20.4614 37.7912 21.0428 35.5367C21.5396 33.6103 20.991 31.866 19.9184 30.2626C18.9288 28.7833 17.6731 27.5464 16.3168 26.4039C15.7854 25.9564 15.2842 25.4731 14.6851 24.9298C14.663 25.1952 14.6401 25.3435 14.6398 25.4918C14.6373 27.2007 14.598 28.9109 14.648 30.6184C14.716 32.9399 12.8833 34.7842 10.5894 34.6848C10.3705 34.6754 10.1508 34.6836 9.87633 34.6836C9.87633 34.4469 9.87633 34.2498 9.87633 34.0526C9.87633 30.1057 9.83394 26.158 9.90872 22.2126C9.92558 21.3227 9.53569 20.8604 8.94284 20.4032C8.92921 20.3927 8.89838 20.4053 8.88364 20.3953C8.1532 19.8985 8.11784 19.7125 8.80758 19.2204C10.5436 17.982 12.7665 17.9651 14.5029 19.2352C16.0686 20.3804 17.5958 21.5787 19.1319 22.764C19.496 23.045 19.828 23.3676 20.2213 23.7119C20.7908 22.88 21.3575 22.061 21.9153 21.2359C23.9322 18.2522 25.9424 15.264 27.9629 12.2827C29.09 10.6198 30.2194 8.95819 31.3733 7.31389C32.0169 6.39662 32.9605 5.96761 34.0561 5.87384C34.4773 5.83779 34.9042 5.86797 35.3953 5.86797C35.3953 11.5648 35.3953 17.2329 35.3953 22.962Z" fill="black"/>
<path id="s1" d="M4.26168 13.5275C4.17848 12.7834 4.01162 12.0905 4.03111 11.4028C4.09635 9.10101 4.71154 6.98939 6.22297 5.16845C7.74434 3.33553 9.69211 2.33106 11.9806 1.82588C13.8853 1.4054 15.7519 1.56641 17.5763 2.10724C18.9535 2.5155 20.269 3.17516 21.2961 4.19539C22.5949 5.48544 23.7762 6.8938 25.0034 8.25537C25.0619 8.32026 25.0748 8.42619 25.1094 8.51301C24.2865 9.19929 23.3738 9.64489 22.271 9.65814C21.1135 9.67206 20.1404 9.23615 19.3566 8.43233C18.309 7.35799 17.1197 6.54959 15.6494 6.20449C13.5745 5.71747 11.7082 6.06062 10.0816 7.53931C8.8696 8.64107 8.45213 10.0331 8.41751 11.5878C8.39288 12.6937 7.95794 13.6164 7.24254 14.4147C6.66157 15.063 6.03238 15.6681 5.28376 16.437C4.90962 15.3898 4.58651 14.4854 4.26168 13.5275Z" fill="black"/>
<path id="dot" d="M37.4919 44.8212C36.4414 44.1275 35.9594 43.2007 35.991 41.9588C36.0152 41.004 36.8059 39.5283 38.2107 39.2104C39.8899 38.8305 41.274 39.6393 41.8571 41.0135C42.6668 42.9216 41.3625 45.1101 39.2508 45.183C38.6528 45.2036 38.052 45.2207 37.4919 44.8212Z" fill="black"/>
</g>
<g id="sm-names">
<path id="Web Developer" d="M65.6782 28.5723L62.4197 39.8157H60.7744L58.1611 30.7662L55.4511 39.8157L53.8219 39.8318L50.6763 28.5723H52.241L54.6929 38.1058L57.403 28.5723H59.0483L61.6293 38.0735L64.0973 28.5723H65.6782ZM75.3501 35.057C75.3501 35.3366 75.334 35.6324 75.3017 35.9442H68.2363C68.2901 36.8153 68.5859 37.4982 69.1236 37.9929C69.672 38.4768 70.3334 38.7188 71.1077 38.7188C71.7422 38.7188 72.2691 38.5736 72.6885 38.2832C73.1187 37.9821 73.4198 37.5842 73.5919 37.0895H75.1727C74.9361 37.9391 74.4629 38.6327 73.7532 39.1704C73.0434 39.6974 72.1616 39.9609 71.1077 39.9609C70.2689 39.9609 69.5161 39.7727 68.8493 39.3963C68.1933 39.0199 67.6771 38.4876 67.3007 37.7993C66.9244 37.1003 66.7362 36.2937 66.7362 35.3796C66.7362 34.4655 66.919 33.6644 67.2846 32.9761C67.6503 32.2878 68.1611 31.7609 68.8171 31.3953C69.4838 31.0189 70.2474 30.8307 71.1077 30.8307C71.9465 30.8307 72.6885 31.0135 73.3338 31.3791C73.979 31.7448 74.4737 32.2502 74.8178 32.8955C75.1727 33.5299 75.3501 34.2505 75.3501 35.057ZM73.8338 34.7505C73.8338 34.1913 73.7102 33.7128 73.4628 33.3149C73.2155 32.9062 72.8767 32.5997 72.4466 32.3954C72.0271 32.1803 71.5593 32.0728 71.0432 32.0728C70.3011 32.0728 69.6666 32.3094 69.1397 32.7825C68.6235 33.2557 68.3278 33.9117 68.2525 34.7505H73.8338ZM78.7557 32.6212C79.0568 32.0943 79.4977 31.6641 80.0784 31.3307C80.6591 30.9974 81.3205 30.8307 82.0626 30.8307C82.8583 30.8307 83.5735 31.0189 84.208 31.3953C84.8425 31.7717 85.3425 32.304 85.7082 32.9922C86.0738 33.6697 86.2566 34.4602 86.2566 35.3635C86.2566 36.2561 86.0738 37.0519 85.7082 37.7509C85.3425 38.4499 84.8371 38.993 84.1918 39.3801C83.5574 39.7673 82.8476 39.9609 82.0626 39.9609C81.299 39.9609 80.6269 39.7942 80.0462 39.4608C79.4762 39.1274 79.046 38.7026 78.7557 38.1864V39.8157H77.2878V27.8787H78.7557V32.6212ZM84.7564 35.3635C84.7564 34.6968 84.622 34.116 84.3532 33.6213C84.0843 33.1267 83.7187 32.7503 83.2562 32.4922C82.8046 32.2341 82.3045 32.105 81.7561 32.105C81.2184 32.105 80.7183 32.2395 80.2559 32.5083C79.8042 32.7664 79.4386 33.1482 79.159 33.6536C78.8901 34.1483 78.7557 34.7236 78.7557 35.3796C78.7557 36.0464 78.8901 36.6325 79.159 37.1379C79.4386 37.6326 79.8042 38.0144 80.2559 38.2832C80.7183 38.5413 81.2184 38.6704 81.7561 38.6704C82.3045 38.6704 82.8046 38.5413 83.2562 38.2832C83.7187 38.0144 84.0843 37.6326 84.3532 37.1379C84.622 36.6325 84.7564 36.041 84.7564 35.3635ZM95.9898 28.5723C97.2158 28.5723 98.2751 28.8035 99.1676 29.266C100.071 29.7176 100.759 30.3683 101.232 31.2178C101.716 32.0674 101.958 33.0675 101.958 34.2182C101.958 35.3689 101.716 36.369 101.232 37.2186C100.759 38.0574 100.071 38.7026 99.1676 39.1543C98.2751 39.5952 97.2158 39.8157 95.9898 39.8157H92.4894V28.5723H95.9898ZM95.9898 38.6058C97.4416 38.6058 98.5493 38.2241 99.3128 37.4605C100.076 36.6862 100.458 35.6055 100.458 34.2182C100.458 32.8202 100.071 31.7286 99.2967 30.9436C98.5332 30.1586 97.4309 29.766 95.9898 29.766H93.9573V38.6058H95.9898ZM111.96 35.057C111.96 35.3366 111.944 35.6324 111.912 35.9442H104.846C104.9 36.8153 105.196 37.4982 105.733 37.9929C106.282 38.4768 106.943 38.7188 107.718 38.7188C108.352 38.7188 108.879 38.5736 109.298 38.2832C109.729 37.9821 110.03 37.5842 110.202 37.0895H111.783C111.546 37.9391 111.073 38.6327 110.363 39.1704C109.653 39.6974 108.771 39.9609 107.718 39.9609C106.879 39.9609 106.126 39.7727 105.459 39.3963C104.803 39.0199 104.287 38.4876 103.911 37.7993C103.534 37.1003 103.346 36.2937 103.346 35.3796C103.346 34.4655 103.529 33.6644 103.895 32.9761C104.26 32.2878 104.771 31.7609 105.427 31.3953C106.094 31.0189 106.857 30.8307 107.718 30.8307C108.556 30.8307 109.298 31.0135 109.944 31.3791C110.589 31.7448 111.084 32.2502 111.428 32.8955C111.783 33.5299 111.96 34.2505 111.96 35.057ZM110.444 34.7505C110.444 34.1913 110.32 33.7128 110.073 33.3149C109.825 32.9062 109.487 32.5997 109.056 32.3954C108.637 32.1803 108.169 32.0728 107.653 32.0728C106.911 32.0728 106.277 32.3094 105.75 32.7825C105.233 33.2557 104.938 33.9117 104.862 34.7505H110.444ZM117.188 38.4607L119.931 30.9759H121.495L118.027 39.8157H116.317L112.849 30.9759H114.43L117.188 38.4607ZM131.005 35.057C131.005 35.3366 130.989 35.6324 130.957 35.9442H123.892C123.945 36.8153 124.241 37.4982 124.779 37.9929C125.327 38.4768 125.989 38.7188 126.763 38.7188C127.397 38.7188 127.924 38.5736 128.344 38.2832C128.774 37.9821 129.075 37.5842 129.247 37.0895H130.828C130.591 37.9391 130.118 38.6327 129.408 39.1704C128.699 39.6974 127.817 39.9609 126.763 39.9609C125.924 39.9609 125.171 39.7727 124.505 39.3963C123.849 39.0199 123.332 38.4876 122.956 37.7993C122.58 37.1003 122.391 36.2937 122.391 35.3796C122.391 34.4655 122.574 33.6644 122.94 32.9761C123.306 32.2878 123.816 31.7609 124.472 31.3953C125.139 31.0189 125.903 30.8307 126.763 30.8307C127.602 30.8307 128.344 31.0135 128.989 31.3791C129.634 31.7448 130.129 32.2502 130.473 32.8955C130.828 33.5299 131.005 34.2505 131.005 35.057ZM129.489 34.7505C129.489 34.1913 129.365 33.7128 129.118 33.3149C128.871 32.9062 128.532 32.5997 128.102 32.3954C127.682 32.1803 127.215 32.0728 126.698 32.0728C125.956 32.0728 125.322 32.3094 124.795 32.7825C124.279 33.2557 123.983 33.9117 123.908 34.7505H129.489ZM134.411 27.8787V39.8157H132.943V27.8787H134.411ZM140.768 39.9609C139.94 39.9609 139.187 39.7727 138.51 39.3963C137.843 39.0199 137.316 38.4876 136.929 37.7993C136.553 37.1003 136.364 36.2937 136.364 35.3796C136.364 34.4763 136.558 33.6805 136.945 32.9922C137.343 32.2932 137.881 31.7609 138.558 31.3953C139.236 31.0189 139.994 30.8307 140.833 30.8307C141.671 30.8307 142.43 31.0189 143.107 31.3953C143.785 31.7609 144.317 32.2878 144.704 32.9761C145.102 33.6644 145.301 34.4655 145.301 35.3796C145.301 36.2937 145.097 37.1003 144.688 37.7993C144.29 38.4876 143.747 39.0199 143.059 39.3963C142.37 39.7727 141.607 39.9609 140.768 39.9609ZM140.768 38.6704C141.295 38.6704 141.79 38.5467 142.252 38.2994C142.715 38.052 143.086 37.681 143.365 37.1863C143.656 36.6916 143.801 36.0894 143.801 35.3796C143.801 34.6699 143.661 34.0676 143.381 33.573C143.102 33.0783 142.736 32.7126 142.284 32.476C141.833 32.2287 141.343 32.105 140.817 32.105C140.279 32.105 139.784 32.2287 139.332 32.476C138.892 32.7126 138.537 33.0783 138.268 33.573C137.999 34.0676 137.865 34.6699 137.865 35.3796C137.865 36.1002 137.994 36.7078 138.252 37.2024C138.521 37.6971 138.875 38.0681 139.316 38.3155C139.757 38.5521 140.241 38.6704 140.768 38.6704ZM148.699 32.6051C148.989 32.0997 149.419 31.6802 149.989 31.3469C150.57 31.0027 151.242 30.8307 152.006 30.8307C152.791 30.8307 153.501 31.0189 154.135 31.3953C154.78 31.7717 155.286 32.304 155.651 32.9922C156.017 33.6697 156.2 34.4602 156.2 35.3635C156.2 36.2561 156.017 37.0519 155.651 37.7509C155.286 38.4499 154.78 38.993 154.135 39.3801C153.501 39.7673 152.791 39.9609 152.006 39.9609C151.253 39.9609 150.586 39.7942 150.006 39.4608C149.436 39.1167 149 38.6919 148.699 38.1864V44.0097H147.231V30.9759H148.699V32.6051ZM154.7 35.3635C154.7 34.6968 154.565 34.116 154.296 33.6213C154.028 33.1267 153.662 32.7503 153.199 32.4922C152.748 32.2341 152.248 32.105 151.699 32.105C151.162 32.105 150.662 32.2395 150.199 32.5083C149.747 32.7664 149.382 33.1482 149.102 33.6536C148.833 34.1483 148.699 34.7236 148.699 35.3796C148.699 36.0464 148.833 36.6325 149.102 37.1379C149.382 37.6326 149.747 38.0144 150.199 38.2832C150.662 38.5413 151.162 38.6704 151.699 38.6704C152.248 38.6704 152.748 38.5413 153.199 38.2832C153.662 38.0144 154.028 37.6326 154.296 37.1379C154.565 36.6325 154.7 36.041 154.7 35.3635ZM166.198 35.057C166.198 35.3366 166.181 35.6324 166.149 35.9442H159.084C159.138 36.8153 159.433 37.4982 159.971 37.9929C160.519 38.4768 161.181 38.7188 161.955 38.7188C162.59 38.7188 163.117 38.5736 163.536 38.2832C163.966 37.9821 164.267 37.5842 164.439 37.0895H166.02C165.784 37.9391 165.31 38.6327 164.601 39.1704C163.891 39.6974 163.009 39.9609 161.955 39.9609C161.116 39.9609 160.364 39.7727 159.697 39.3963C159.041 39.0199 158.525 38.4876 158.148 37.7993C157.772 37.1003 157.584 36.2937 157.584 35.3796C157.584 34.4655 157.766 33.6644 158.132 32.9761C158.498 32.2878 159.009 31.7609 159.665 31.3953C160.331 31.0189 161.095 30.8307 161.955 30.8307C162.794 30.8307 163.536 31.0135 164.181 31.3791C164.826 31.7448 165.321 32.2502 165.665 32.8955C166.02 33.5299 166.198 34.2505 166.198 35.057ZM164.681 34.7505C164.681 34.1913 164.558 33.7128 164.31 33.3149C164.063 32.9062 163.724 32.5997 163.294 32.3954C162.875 32.1803 162.407 32.0728 161.891 32.0728C161.149 32.0728 160.514 32.3094 159.987 32.7825C159.471 33.2557 159.175 33.9117 159.1 34.7505H164.681ZM169.603 32.4115C169.861 31.9061 170.227 31.5136 170.7 31.234C171.184 30.9543 171.77 30.8145 172.458 30.8145V32.3309H172.071C170.426 32.3309 169.603 33.2235 169.603 35.0086V39.8157H168.135V30.9759H169.603V32.4115Z" fill="black"/>
<path id="Sebasti&#195;&#161;n M." d="M57.2739 22.9981C56.2042 22.9981 55.2414 22.8147 54.3856 22.448C53.5298 22.0659 52.8574 21.531 52.3684 20.8433C51.8793 20.1556 51.6348 19.3533 51.6348 18.4364H54.4315C54.4926 19.1241 54.76 19.6895 55.2338 20.1327C55.7228 20.5759 56.4028 20.7975 57.2739 20.7975C58.1756 20.7975 58.8785 20.5835 59.3828 20.1556C59.8871 19.7125 60.1393 19.147 60.1393 18.4593C60.1393 17.9245 59.9788 17.4889 59.6579 17.1527C59.3523 16.8165 58.9626 16.5567 58.4888 16.3733C58.0304 16.19 57.3885 15.9913 56.5633 15.7773C55.5241 15.5023 54.676 15.2272 54.0188 14.9521C53.377 14.6617 52.8268 14.2186 52.3684 13.6226C51.9099 13.0266 51.6807 12.2319 51.6807 11.2386C51.6807 10.3216 51.9099 9.51934 52.3684 8.83165C52.8268 8.14396 53.4687 7.61672 54.2939 7.24996C55.1191 6.88319 56.0743 6.6998 57.1593 6.6998C58.7028 6.6998 59.9636 7.08949 60.9416 7.86888C61.9349 8.63298 62.4851 9.68744 62.5921 11.0323H59.7038C59.6579 10.4515 59.3828 9.95488 58.8785 9.54226C58.3742 9.12965 57.7095 8.92334 56.8842 8.92334C56.1354 8.92334 55.5241 9.11436 55.0504 9.49642C54.5766 9.87847 54.3398 10.4286 54.3398 11.1469C54.3398 11.6359 54.4849 12.0409 54.7753 12.3618C55.0809 12.6674 55.463 12.912 55.9215 13.0953C56.3799 13.2787 57.0065 13.4774 57.8011 13.6913C58.8556 13.9817 59.7114 14.2721 60.3685 14.5624C61.0409 14.8528 61.6064 15.3036 62.0648 15.9149C62.5386 16.5109 62.7755 17.3132 62.7755 18.3218C62.7755 19.1317 62.5539 19.8959 62.1107 20.6141C61.6828 21.3324 61.0486 21.9131 60.2081 22.3563C59.3828 22.7842 58.4048 22.9981 57.2739 22.9981ZM77.4351 16.2129C77.4351 16.6866 77.4046 17.1145 77.3434 17.4966H67.6928C67.7692 18.5052 68.1436 19.3151 68.816 19.9264C69.4884 20.5377 70.3137 20.8433 71.2917 20.8433C72.6977 20.8433 73.691 20.255 74.2717 19.0783H77.0913C76.7092 20.2397 76.0139 21.1948 75.0053 21.9436C74.0119 22.6772 72.7741 23.044 71.2917 23.044C70.0844 23.044 68.9994 22.7765 68.0367 22.2416C67.0892 21.6915 66.3403 20.9274 65.7902 19.9493C65.2553 18.956 64.9879 17.8099 64.9879 16.5109C64.9879 15.2119 65.2477 14.0734 65.7673 13.0953C66.3021 12.102 67.0433 11.3379 67.9908 10.803C68.9536 10.2682 70.0539 10.0007 71.2917 10.0007C72.4837 10.0007 73.5458 10.2605 74.478 10.7801C75.4102 11.2997 76.1361 12.0332 76.6557 12.9807C77.1753 13.9129 77.4351 14.9903 77.4351 16.2129ZM74.7073 15.3876C74.692 14.4249 74.3481 13.6531 73.6757 13.0724C73.0033 12.4917 72.1704 12.2013 71.1771 12.2013C70.2755 12.2013 69.5037 12.4917 68.8619 13.0724C68.22 13.6379 67.838 14.4096 67.7157 15.3876H74.7073ZM82.62 12.0867C83.0632 11.4754 83.6668 10.9788 84.431 10.5967C85.2103 10.1994 86.0738 10.0007 87.0213 10.0007C88.1368 10.0007 89.1455 10.2682 90.0471 10.803C90.9487 11.3379 91.6594 12.102 92.179 13.0953C92.6985 14.0734 92.9583 15.1966 92.9583 16.465C92.9583 17.7334 92.6985 18.872 92.179 19.8806C91.6594 20.8739 90.9411 21.6533 90.0242 22.2187C89.1225 22.7689 88.1216 23.044 87.0213 23.044C86.0432 23.044 85.1721 22.8529 84.408 22.4709C83.6592 22.0888 83.0632 21.5998 82.62 21.0038V22.8376H80.0068V5.87457H82.62V12.0867ZM90.2993 16.465C90.2993 15.594 90.1159 14.8451 89.7491 14.2186C89.3976 13.5767 88.9239 13.0953 88.3279 12.7744C87.7472 12.4382 87.1206 12.2701 86.4482 12.2701C85.7911 12.2701 85.1645 12.4382 84.5685 12.7744C83.9878 13.1106 83.514 13.5996 83.1473 14.2415C82.7958 14.8833 82.62 15.6398 82.62 16.5109C82.62 17.382 82.7958 18.1461 83.1473 18.8032C83.514 19.445 83.9878 19.9341 84.5685 20.2703C85.1645 20.6065 85.7911 20.7746 86.4482 20.7746C87.1206 20.7746 87.7472 20.6065 88.3279 20.2703C88.9239 19.9188 89.3976 19.4145 89.7491 18.7573C90.1159 18.1002 90.2993 17.3361 90.2993 16.465ZM94.6715 16.465C94.6715 15.1966 94.9313 14.0734 95.4509 13.0953C95.9857 12.1173 96.704 11.3608 97.6056 10.826C98.5226 10.2758 99.5312 10.0007 100.631 10.0007C101.625 10.0007 102.488 10.1994 103.222 10.5967C103.971 10.9788 104.567 11.4602 105.01 12.0409V10.207H107.646V22.8376H105.01V20.958C104.567 21.554 103.963 22.0506 103.199 22.448C102.435 22.8453 101.564 23.044 100.586 23.044C99.5006 23.044 98.5073 22.7689 97.6056 22.2187C96.704 21.6533 95.9857 20.8739 95.4509 19.8806C94.9313 18.872 94.6715 17.7334 94.6715 16.465ZM105.01 16.5109C105.01 15.6398 104.826 14.8833 104.46 14.2415C104.108 13.5996 103.642 13.1106 103.061 12.7744C102.481 12.4382 101.854 12.2701 101.182 12.2701C100.509 12.2701 99.8827 12.4382 99.3019 12.7744C98.7212 13.0953 98.2475 13.5767 97.8807 14.2186C97.5292 14.8451 97.3535 15.594 97.3535 16.465C97.3535 17.3361 97.5292 18.1002 97.8807 18.7573C98.2475 19.4145 98.7212 19.9188 99.3019 20.2703C99.8979 20.6065 100.525 20.7746 101.182 20.7746C101.854 20.7746 102.481 20.6065 103.061 20.2703C103.642 19.9341 104.108 19.445 104.46 18.8032C104.826 18.1461 105.01 17.382 105.01 16.5109ZM115.663 23.044C114.67 23.044 113.776 22.8682 112.981 22.5167C112.202 22.15 111.583 21.6609 111.124 21.0496C110.666 20.4231 110.421 19.7277 110.391 18.9636H113.096C113.141 19.4985 113.394 19.9493 113.852 20.3161C114.326 20.6676 114.914 20.8433 115.617 20.8433C116.351 20.8433 116.916 20.7058 117.313 20.4307C117.726 20.1404 117.932 19.7736 117.932 19.3304C117.932 18.8567 117.703 18.5052 117.245 18.276C116.801 18.0467 116.091 17.7946 115.113 17.5195C114.165 17.2597 113.394 17.0075 112.798 16.763C112.202 16.5185 111.682 16.1441 111.239 15.6398C110.811 15.1355 110.597 14.4707 110.597 13.6455C110.597 12.9731 110.796 12.3618 111.193 11.8116C111.59 11.2462 112.156 10.803 112.889 10.4821C113.638 10.1612 114.494 10.0007 115.457 10.0007C116.893 10.0007 118.047 10.3675 118.918 11.101C119.804 11.8193 120.278 12.805 120.339 14.0581H117.726C117.68 13.4927 117.451 13.0419 117.038 12.7056C116.626 12.3694 116.068 12.2013 115.365 12.2013C114.677 12.2013 114.15 12.3312 113.783 12.591C113.416 12.8508 113.233 13.1947 113.233 13.6226C113.233 13.9588 113.355 14.2415 113.6 14.4707C113.844 14.7 114.142 14.8833 114.494 15.0209C114.845 15.1431 115.365 15.3036 116.053 15.5023C116.97 15.7468 117.718 15.9989 118.299 16.2587C118.895 16.5032 119.407 16.87 119.835 17.359C120.263 17.8481 120.484 18.4975 120.5 19.3075C120.5 20.0257 120.301 20.6676 119.904 21.233C119.506 21.7985 118.941 22.2416 118.207 22.5626C117.489 22.8835 116.641 23.044 115.663 23.044ZM126.372 12.3389V19.3304C126.372 19.8042 126.479 20.148 126.693 20.362C126.922 20.5606 127.304 20.66 127.839 20.66H129.444V22.8376H127.381C126.204 22.8376 125.302 22.5626 124.676 22.0124C124.049 21.4623 123.736 20.5683 123.736 19.3304V12.3389H122.246V10.207H123.736V7.06657H126.372V10.207H129.444V12.3389H126.372ZM133.182 8.53365C132.708 8.53365 132.311 8.37319 131.99 8.05226C131.669 7.73134 131.509 7.33401 131.509 6.86026C131.509 6.38652 131.669 5.98919 131.99 5.66826C132.311 5.34734 132.708 5.18688 133.182 5.18688C133.64 5.18688 134.03 5.34734 134.351 5.66826C134.672 5.98919 134.832 6.38652 134.832 6.86026C134.832 7.33401 134.672 7.73134 134.351 8.05226C134.03 8.37319 133.64 8.53365 133.182 8.53365ZM134.466 10.207V22.8376H131.852V10.207H134.466ZM137.025 16.465C137.025 15.1966 137.285 14.0734 137.805 13.0953C138.34 12.1173 139.058 11.3608 139.96 10.826C140.877 10.2758 141.885 10.0007 142.985 10.0007C143.979 10.0007 144.842 10.1994 145.576 10.5967C146.325 10.9788 146.921 11.4602 147.364 12.0409V10.207H150V22.8376H147.364V20.958C146.921 21.554 146.317 22.0506 145.553 22.448C144.789 22.8453 143.918 23.044 142.94 23.044C141.855 23.044 140.861 22.7689 139.96 22.2187C139.058 21.6533 138.34 20.8739 137.805 19.8806C137.285 18.872 137.025 17.7334 137.025 16.465ZM147.364 16.5109C147.364 15.6398 147.18 14.8833 146.814 14.2415C146.462 13.5996 145.996 13.1106 145.415 12.7744C144.835 12.4382 144.208 12.2701 143.536 12.2701C142.863 12.2701 142.237 12.4382 141.656 12.7744C141.075 13.0953 140.601 13.5767 140.235 14.2186C139.883 14.8451 139.707 15.594 139.707 16.465C139.707 17.3361 139.883 18.1002 140.235 18.7573C140.601 19.4145 141.075 19.9188 141.656 20.2703C142.252 20.6065 142.878 20.7746 143.536 20.7746C144.208 20.7746 144.835 20.6065 145.415 20.2703C145.996 19.9341 146.462 19.445 146.814 18.8032C147.18 18.1461 147.364 17.382 147.364 16.5109ZM146.309 6.81442L141.243 9.31303V7.38749L146.309 4.59088V6.81442ZM159.805 10.0007C160.798 10.0007 161.685 10.207 162.464 10.6196C163.259 11.0323 163.878 11.6435 164.321 12.4535C164.764 13.2634 164.986 14.2415 164.986 15.3876V22.8376H162.395V15.7773C162.395 14.6465 162.112 13.783 161.547 13.187C160.982 12.5757 160.21 12.2701 159.232 12.2701C158.254 12.2701 157.474 12.5757 156.894 13.187C156.328 13.783 156.046 14.6465 156.046 15.7773V22.8376H153.432V10.207H156.046V11.6512C156.473 11.1316 157.016 10.7266 157.673 10.4363C158.345 10.1459 159.056 10.0007 159.805 10.0007ZM191.053 6.90611V22.8376H188.44V11.9263L183.58 22.8376H181.769L176.887 11.9263V22.8376H174.273V6.90611H177.093L182.686 19.3992L188.257 6.90611H191.053ZM195.542 22.9981C195.069 22.9981 194.671 22.8376 194.35 22.5167C194.029 22.1958 193.869 21.7985 193.869 21.3247C193.869 20.851 194.029 20.4536 194.35 20.1327C194.671 19.8118 195.069 19.6513 195.542 19.6513C196.001 19.6513 196.39 19.8118 196.711 20.1327C197.032 20.4536 197.193 20.851 197.193 21.3247C197.193 21.7985 197.032 22.1958 196.711 22.5167C196.39 22.8376 196.001 22.9981 195.542 22.9981Z" fill="black"/>
</g>
</g>
</g>
</svg>
