<svg width="500" height="500" viewBox="0 0 500 500" fill="none" xmlns="http://www.w3.org/2000/svg">
<g id="Logo sm -1x1">
<g id="sm-container" className="hover-effect">
<g id="sm-bg">
<rect id="bg3" x="30.7894" y="16" width="457.211" height="457.211" rx="10" fill="#010101"/>
<rect id="bg2" x="22.4385" y="22.2632" width="457.211" height="457.211" rx="10" fill="#0C0B0B"/>
<rect id="bg1" x="12" y="26.4385" width="457.211" height="457.211" rx="10" fill="#121212" fill-opacity="0.96"/>
</g>
<g id="sm-simbols">
<rect id="bg-general" x="12" y="26.4385" width="457.211" height="457.211" rx="10" fill="#121212"/>
<path id="M" d="M364.841 175.969C364.841 268.504 364.841 360.517 364.841 452.444C353.003 455.659 337.012 448.549 329.097 436.813C324.471 429.952 322.547 422.403 322.554 414.139C322.62 340.378 322.592 266.616 322.592 192.855C322.592 190.832 322.592 188.808 322.592 185.353C320.914 187.399 320.046 188.296 319.362 189.316C298.358 220.663 277.408 252.046 256.321 283.338C254.406 286.179 254.209 287.973 256.319 291.004C277.368 321.248 284.814 354.117 269.626 388.664C252.946 426.604 223.006 448.672 181.282 452.618C135.993 456.901 100.828 438.449 74.4025 402.292C67.7689 393.215 61.9587 383.536 55.842 374.244C70.9427 360.932 91.8556 363.583 104.379 378.946C111.145 387.245 118.417 395.487 126.793 402.058C165.031 432.055 223.709 412.141 234.598 365.897C237.886 351.933 236.048 338.584 229.658 325.857C221.327 309.264 192.668 278.893 175.742 268.724C175.628 270.599 175.444 272.223 175.442 273.848C175.42 289.852 175.466 305.857 175.42 321.862C175.355 344.131 156.001 360.385 133.211 356.73C133.211 354.804 133.211 352.769 133.211 350.734C133.211 314.027 133.139 277.32 133.308 240.614C133.328 236.356 132.204 233.47 128.722 230.983C124.95 228.287 121.606 224.993 118.087 221.97C130.683 206.982 156.115 204.305 173.11 216.7C189.956 228.986 206.133 242.188 222.597 254.997C223.932 256.035 225.218 257.134 226.94 258.542C234.179 247.954 241.238 237.673 248.251 227.363C274.364 188.975 300.7 150.736 326.439 112.099C335.821 98.0148 348.467 94.1205 364.841 96.2808C364.841 122.695 364.841 149.071 364.841 175.969Z" fill="#FCFCFC"/>
<path id="S" d="M151.29 58.642C190.897 51.5763 223.292 64.0885 249.792 93.0083C257.149 101.037 263.91 109.611 270.893 117.875C256.136 132.432 234.463 132.502 220.115 118.739C216.483 115.255 212.862 111.708 208.893 108.632C188.2 92.5902 157.746 91.3994 138.263 105.889C126.086 114.945 119.441 127.084 119.272 142.399C119.128 155.418 114.767 166.444 105.112 175.396C100.535 179.639 96.401 184.36 91.2922 189.67C79.1809 166.799 76.4209 143.673 83.3928 120.005C93.3444 86.2227 117.046 66.7037 151.29 58.642Z" fill="#FBFBFB"/>
<path id="DOT" d="M416.655 405.711C425.356 414.422 427.882 424.451 423.791 435.606C419.823 446.422 411.492 452.416 400.099 453.198C389.163 453.949 380.498 449.317 374.745 439.837C368.079 428.851 370.424 414.218 380.092 405.587C390.314 396.459 404.408 396.412 416.655 405.711Z" fill="#FBFBFB"/>
</g>
</g>
</g>
</svg>
